<?xml version="1.0" encoding="utf-8"?>
<!-- Generator: Adobe Illustrator 16.0.1, SVG Export Plug-In . SVG Version: 6.00 Build 0)  -->
<!DOCTYPE svg PUBLIC "-//W3C//DTD SVG 1.1//EN" "http://www.w3.org/Graphics/SVG/1.1/DTD/svg11.dtd">
<svg version="1.1" id="Layer_1" xmlns="http://www.w3.org/2000/svg" xmlns:xlink="http://www.w3.org/1999/xlink" x="0px" y="0px"
	 width="400px" height="400px" viewBox="0 0 400 400" enable-background="new 0 0 400 400" xml:space="preserve">
<rect fill="#231F20" width="400" height="400"/>
<g>
	<path fill-rule="evenodd" clip-rule="evenodd" fill="#404041" d="M319.284,175.81h-27.056c1.969,7.651,3.132,15.647,3.132,23.916
		c0,52.825-42.812,95.638-95.626,95.638c-52.814,0-95.626-42.813-95.626-95.638c0-8.269,1.169-16.265,3.137-23.916H80.187v131.507
		c0,6.592,5.354,11.943,11.967,11.943H307.32c6.613,0,11.964-5.352,11.964-11.943V175.81z M319.284,92.138
		c0-6.6-5.351-11.954-11.964-11.954h-35.856c-6.602,0-11.954,5.354-11.954,11.954v35.867c0,6.599,5.353,11.954,11.954,11.954h35.856
		c6.613,0,11.964-5.354,11.964-11.954V92.138z M199.734,139.959c-33.014,0-59.77,26.753-59.77,59.767
		c0,33.009,26.755,59.775,59.77,59.775c33.014,0,59.775-26.766,59.775-59.775C259.51,166.712,232.748,139.959,199.734,139.959
		 M319.284,355.134H80.187c-19.8,0-35.854-16.057-35.854-35.873V80.184c0-19.802,16.054-35.854,35.854-35.854h239.097
		c19.807,0,35.857,16.052,35.857,35.854v239.077C355.142,339.077,339.091,355.134,319.284,355.134"/>
</g>
</svg>
